<svg xmlns="http://www.w3.org/2000/svg" width="118" height="117" viewBox="0 0 118 117">
    <g fill="none" fill-rule="evenodd">
        <path d="M72.046 82.726H59.759v30.967h15.476V85.914a3.191 3.191 0 0 0-3.189-3.188zM41.8 85.914v27.779h15.476V82.726h-12.29a3.191 3.191 0 0 0-3.186 3.188zM68.971 25.373a1.242 1.242 0 1 1 2.484 0v15.412h3.78V25.073a3.191 3.191 0 0 0-3.181-3.189h-3.682a3.193 3.193 0 0 0-3.18 3.18v15.721h3.779V25.373zM2.484 23.782v16.744h27.573V13.65h-17.44c-5.593.006-10.126 4.539-10.133 10.132zm17.7-4.38a5.677 5.677 0 0 1 5.671 5.671v10.693c0 .686-.556 1.241-1.242 1.241H12.086a1.242 1.242 0 0 1-1.242-1.241V25.073a5.676 5.676 0 0 1 5.67-5.671h3.67zM68.971 54.181a1.242 1.242 0 1 1 2.484 0v15.411h3.78V53.88a3.193 3.193 0 0 0-3.181-3.189h-3.682a3.194 3.194 0 0 0-3.18 3.177v15.724h3.779V54.181zM45.58 25.373a1.242 1.242 0 1 1 2.484 0v15.412h3.779v-15.72a3.192 3.192 0 0 0-3.18-3.181h-3.684a3.193 3.193 0 0 0-3.18 3.189v15.712h3.781V25.373zM45.58 54.181a1.242 1.242 0 1 1 2.484 0v15.411h3.779V53.874a3.192 3.192 0 0 0-3.18-3.183h-3.684A3.194 3.194 0 0 0 41.8 53.88v15.712h3.78V54.181zM17.106 75.222a1.242 1.242 0 1 1 2.484 0v9.448h3.781v-9.454a3.191 3.191 0 0 0-3.177-3.183h-3.689a3.19 3.19 0 0 0-3.177 3.186v9.451h3.778v-9.448zM17.106 53.88a1.242 1.242 0 1 1 2.484 0v9.448h3.781v-9.454a3.19 3.19 0 0 0-3.179-3.184h-3.685a3.193 3.193 0 0 0-3.179 3.187v9.451h3.778V53.88z"/>
        <path d="M6.829 113.693h23.228v-70.68H6.829v70.68zm4.015-59.808a5.679 5.679 0 0 1 5.67-5.674h3.67a5.68 5.68 0 0 1 5.671 5.674v10.686c0 .686-.556 1.242-1.242 1.243H12.086a1.243 1.243 0 0 1-1.242-1.243V53.885zm0 21.341a5.675 5.675 0 0 1 5.67-5.671h3.67a5.676 5.676 0 0 1 5.671 5.671v10.685a1.242 1.242 0 0 1-1.242 1.244H12.086a1.242 1.242 0 0 1-1.242-1.244V75.226zm0 21.342a5.676 5.676 0 0 1 5.67-5.672h3.67a5.677 5.677 0 0 1 5.671 5.672v10.691c0 .686-.556 1.241-1.242 1.242H12.086a1.243 1.243 0 0 1-1.242-1.242V96.568zM17.106 25.073a1.242 1.242 0 1 1 2.484 0v9.449h3.781v-9.456a3.191 3.191 0 0 0-3.179-3.182h-3.685a3.193 3.193 0 0 0-3.179 3.187v9.451h3.778v-9.449z"/>
        <path d="M17.106 96.564a1.242 1.242 0 1 1 2.484 0v9.448h3.781v-9.453a3.192 3.192 0 0 0-3.177-3.184h-3.689a3.19 3.19 0 0 0-3.177 3.185v9.452h3.778v-9.448zM104.42 13.65H86.977v26.876h27.574V23.782c-.006-5.593-4.538-10.126-10.131-10.132zM106 35.766c0 .685-.556 1.24-1.241 1.241H92.227a1.241 1.241 0 0 1-1.241-1.241V25.073a5.676 5.676 0 0 1 5.671-5.673h3.67A5.676 5.676 0 0 1 106 25.073v10.693zM97.248 96.564a1.243 1.243 0 1 1 2.485 0v9.448h3.78V96.56a3.191 3.191 0 0 0-3.177-3.185h-3.688a3.191 3.191 0 0 0-3.179 3.185v9.452h3.779v-9.448z"/>
        <path d="M86.977 113.693H110.2v-70.68H86.977v70.68zm4.009-59.808a5.679 5.679 0 0 1 5.671-5.674h3.67A5.679 5.679 0 0 1 106 53.88v10.691c0 .686-.555 1.242-1.241 1.243H92.227a1.242 1.242 0 0 1-1.241-1.243V53.885zm0 21.341a5.675 5.675 0 0 1 5.671-5.671h3.67A5.675 5.675 0 0 1 106 75.222v10.692c0 .685-.556 1.241-1.241 1.241H92.227a1.241 1.241 0 0 1-1.241-1.241V75.226zm0 21.342a5.676 5.676 0 0 1 5.671-5.672h3.67A5.676 5.676 0 0 1 106 96.564v10.691c0 .686-.555 1.241-1.241 1.242H92.227a1.242 1.242 0 0 1-1.241-1.242V96.568zM100.333 21.884h-3.684a3.192 3.192 0 0 0-3.18 3.182v9.456h3.779v-9.449a1.243 1.243 0 0 1 2.485 0v9.449h3.78v-9.451a3.192 3.192 0 0 0-3.18-3.187z"/>
        <path d="M97.248 53.88a1.243 1.243 0 0 1 2.485 0v9.448h3.78v-9.451a3.193 3.193 0 0 0-3.18-3.187h-3.684a3.193 3.193 0 0 0-3.18 3.187v9.451h3.779V53.88zM97.248 75.222a1.243 1.243 0 0 1 2.485 0v9.448h3.78v-9.45a3.191 3.191 0 0 0-3.177-3.187h-3.688a3.191 3.191 0 0 0-3.179 3.187v9.45h3.779v-9.448zM83.946 6.565H33.089l-6.5 4.6h63.856z"/>
        <path fill="#F7630C" fill-rule="nonzero" d="M78.183 2.483h-39.33l-5.764 4.082h50.857z" opacity=".9"/>
        <path fill="#F7630C" fill-rule="nonzero" d="M104.42 11.165h-9.678l-6.786-4.806L79.3.228A1.25 1.25 0 0 0 78.577 0h-40.12c-.257 0-.508.08-.718.228l-8.907 6.307-6.539 4.63h-9.676C5.652 11.173.007 16.817 0 23.782v17.987c0 .686.556 1.243 1.242 1.244h3.1v71.922a1.242 1.242 0 0 0 1.242 1.243h105.862a1.24 1.24 0 0 0 1.241-1.243V43.013h3.106c.687 0 1.243-.557 1.243-1.244V23.782c-.008-6.965-5.651-12.609-12.616-12.617zM30.057 113.693H6.829v-70.68h23.228v70.68zm0-73.167H2.484V23.782c.007-5.593 4.54-10.126 10.133-10.132h17.44v26.876zm27.219 73.167H41.8V85.914a3.191 3.191 0 0 1 3.187-3.188h12.29l-.001 30.967zm17.959 0H59.759V82.726h12.287a3.191 3.191 0 0 1 3.189 3.188v27.779zm9.256 0H77.72V85.909a5.679 5.679 0 0 0-5.674-5.669h-27.06a5.68 5.68 0 0 0-5.672 5.674v27.779h-6.773V13.65h51.95v100.043zm1.243-102.528H26.59l6.5-4.6 5.764-4.082h39.33l5.762 4.082 6.5 4.6h-4.712zM110.2 113.693H86.977v-70.68H110.2v70.68zm4.347-73.167H86.976V13.65h17.444c5.593.007 10.124 4.54 10.13 10.132v16.744h-.003z"/>
        <path fill="#F7630C" fill-rule="nonzero" d="M32.541 113.693h6.773V85.914a5.68 5.68 0 0 1 5.672-5.674h27.06a5.679 5.679 0 0 1 5.674 5.669v27.784h6.771V13.65h-51.95v100.043zM68.381 19.4h3.665a5.678 5.678 0 0 1 5.674 5.669v16.958c0 .686-.556 1.243-1.242 1.244H63.951a1.244 1.244 0 0 1-1.243-1.244V25.073a5.679 5.679 0 0 1 5.673-5.673zm0 28.806h3.665a5.679 5.679 0 0 1 5.674 5.669v16.959a1.242 1.242 0 0 1-1.242 1.242H63.951a1.243 1.243 0 0 1-1.243-1.242v-16.95a5.68 5.68 0 0 1 5.673-5.676v-.002zM39.314 25.073a5.677 5.677 0 0 1 5.672-5.673h3.669a5.677 5.677 0 0 1 5.672 5.671v16.956c0 .687-.556 1.243-1.243 1.244H40.557a1.244 1.244 0 0 1-1.243-1.244V25.073zm0 28.807a5.678 5.678 0 0 1 5.672-5.672h3.669a5.678 5.678 0 0 1 5.672 5.672v16.954c0 .686-.557 1.242-1.243 1.242H40.557a1.243 1.243 0 0 1-1.243-1.242V53.88z" opacity=".65"/>
        <path fill="#F7630C" fill-rule="nonzero" d="M10.844 25.073v10.693c0 .686.556 1.241 1.242 1.241h12.527c.686 0 1.241-.555 1.242-1.241V25.073a5.677 5.677 0 0 0-5.671-5.673h-3.67a5.676 5.676 0 0 0-5.67 5.673zm2.484 0a3.193 3.193 0 0 1 3.179-3.187h3.685a3.191 3.191 0 0 1 3.179 3.182v9.456H19.59v-9.451a1.242 1.242 0 1 0-2.484 0v9.449h-3.778v-9.449zM100.327 19.4h-3.67a5.676 5.676 0 0 0-5.671 5.671v10.695c0 .685.556 1.241 1.241 1.241h12.529A1.242 1.242 0 0 0 106 35.766V25.073a5.676 5.676 0 0 0-5.673-5.673zm3.186 5.671v9.449h-3.78v-9.447a1.243 1.243 0 0 0-2.485 0v9.449h-3.779v-9.456a3.192 3.192 0 0 1 3.18-3.182h3.684a3.192 3.192 0 0 1 3.18 3.187zM12.086 65.814h12.527c.686 0 1.242-.557 1.242-1.243V53.88a5.68 5.68 0 0 0-5.671-5.674h-3.67a5.679 5.679 0 0 0-5.67 5.674v10.691c0 .686.556 1.242 1.242 1.243zm1.242-11.934a3.193 3.193 0 0 1 3.179-3.187h3.685a3.19 3.19 0 0 1 3.179 3.184v9.454H19.59V53.88a1.242 1.242 0 1 0-2.484 0v9.448h-3.778V53.88zM92.227 65.814h12.529A1.243 1.243 0 0 0 106 64.571V53.88a5.679 5.679 0 0 0-5.67-5.674H96.657a5.679 5.679 0 0 0-5.671 5.674v10.691c0 .686.555 1.242 1.241 1.243zm1.242-11.934a3.193 3.193 0 0 1 3.18-3.187h3.684a3.193 3.193 0 0 1 3.18 3.187v9.451h-3.78V53.88a1.243 1.243 0 0 0-2.485 0v9.448h-3.779V53.88zM62.708 42.027c0 .687.556 1.243 1.243 1.244h12.527a1.244 1.244 0 0 0 1.242-1.244V25.071a5.678 5.678 0 0 0-5.674-5.671h-3.665a5.679 5.679 0 0 0-5.675 5.671v16.956h.002zm2.484-16.963a3.193 3.193 0 0 1 3.18-3.18h3.682a3.192 3.192 0 0 1 3.181 3.189v15.712h-3.78V25.373a1.242 1.242 0 1 0-2.484 0v15.412h-3.779V25.064zM40.557 43.271h12.527c.687 0 1.243-.557 1.243-1.244V25.073a5.677 5.677 0 0 0-5.672-5.673h-3.669a5.677 5.677 0 0 0-5.672 5.671v16.956c0 .687.556 1.243 1.243 1.244zm1.242-18.2a3.193 3.193 0 0 1 3.18-3.189h3.684a3.192 3.192 0 0 1 3.18 3.181v15.72h-3.779v-15.41a1.242 1.242 0 1 0-2.484 0v15.412H41.8l-.001-15.714zM62.708 70.834c0 .686.557 1.242 1.243 1.242h12.527a1.242 1.242 0 0 0 1.242-1.242V53.877a5.679 5.679 0 0 0-5.674-5.669h-3.665a5.68 5.68 0 0 0-5.675 5.672V70.834h.002zm2.484-16.966a3.194 3.194 0 0 1 3.18-3.177h3.682a3.194 3.194 0 0 1 3.181 3.189v15.712h-3.78V54.181a1.242 1.242 0 1 0-2.484 0v15.411h-3.779V53.868zM40.557 72.076h12.527c.686 0 1.242-.556 1.243-1.242V53.88a5.678 5.678 0 0 0-5.672-5.672h-3.669a5.678 5.678 0 0 0-5.672 5.672v16.954c0 .686.557 1.242 1.243 1.242zM41.8 53.88a3.194 3.194 0 0 1 3.18-3.189h3.684a3.192 3.192 0 0 1 3.18 3.183v15.718h-3.78V54.181a1.242 1.242 0 1 0-2.484 0v15.411H41.8V53.88zM12.086 87.155h12.527c.686 0 1.241-.555 1.242-1.241V75.222a5.676 5.676 0 0 0-5.671-5.671h-3.67a5.675 5.675 0 0 0-5.67 5.671v10.692c0 .686.556 1.241 1.242 1.241zm1.242-11.935a3.19 3.19 0 0 1 3.177-3.187h3.689a3.191 3.191 0 0 1 3.177 3.183v9.455H19.59v-9.449a1.242 1.242 0 1 0-2.484 0v9.449h-3.778V75.22zM92.227 87.155h12.529A1.241 1.241 0 0 0 106 85.914V75.222a5.675 5.675 0 0 0-5.67-5.671h-3.67a5.675 5.675 0 0 0-5.671 5.671v10.692c0 .684.554 1.239 1.238 1.241zm1.242-11.935a3.191 3.191 0 0 1 3.179-3.187h3.688a3.191 3.191 0 0 1 3.177 3.187v9.45h-3.78v-9.448a1.243 1.243 0 0 0-2.485 0v9.448h-3.779v-9.45zM12.086 108.5h12.527c.686 0 1.241-.556 1.242-1.242V96.564a5.677 5.677 0 0 0-5.671-5.672h-3.67a5.676 5.676 0 0 0-5.67 5.672v10.691a1.243 1.243 0 0 0 1.242 1.245zm1.242-11.94a3.19 3.19 0 0 1 3.177-3.185h3.689a3.192 3.192 0 0 1 3.177 3.184v9.454H19.59v-9.449a1.242 1.242 0 1 0-2.484 0v9.449h-3.778V96.56zM92.227 108.5h12.529a1.242 1.242 0 0 0 1.244-1.245V96.564a5.676 5.676 0 0 0-5.67-5.672h-3.67a5.676 5.676 0 0 0-5.671 5.672v10.691a1.243 1.243 0 0 0 1.238 1.245zm1.242-11.94a3.191 3.191 0 0 1 3.179-3.185h3.688a3.191 3.191 0 0 1 3.177 3.185v9.452h-3.78v-9.448a1.243 1.243 0 1 0-2.485 0v9.448h-3.779V96.56z"/>
        <path fill="#F5A623" fill-rule="nonzero" d="M6.829 43.013h23.228v2.306H6.829zM86.976 43.013h23.227v2.306H86.976z"/>
    </g>
</svg>
