<svg xmlns="http://www.w3.org/2000/svg" width="249" height="259" viewBox="0 0 249 259">
    <g fill="none" fill-rule="evenodd">
        <path d="M21.414 152H75.033c4.84 0 9.204-2.95 11.056-7.477 1.852-4.525.828-9.734-2.595-13.198a11.864 11.864 0 0 0-13.042-2.624c-4.472 1.876-7.387 6.292-7.386 11.19 0 .223 0 .444.017.653.085 1.52-1.064 2.821-2.566 2.907-1.502.086-2.788-1.077-2.873-2.597-.017-.319-.026-.643-.026-.962.027-6.838 3.939-13.05 10.051-15.962-3.59-11.245-15.458-17.466-26.605-13.946-11.147 3.52-17.412 15.47-14.044 26.784a2.78 2.78 0 0 1-.612 2.686 2.703 2.703 0 0 1-2.604.806 2.737 2.737 0 0 1-1.993-1.88 27.39 27.39 0 0 1 .732-17.926 14.553 14.553 0 0 0-1.122-.038C12.875 120.518 6 127.559 6 136.208c0 8.65 6.875 15.69 15.421 15.792h-.007z"/>
        <path fill="#A2CBEB" fill-rule="nonzero" d="M108 142h6v112h-6zM40 190.506h9.369c1.388.002 2.546 1.083 2.672 2.494H60l-10.631-21L40 190.506zM199.64 190.506H209L199.64 172 189 193h7.958c.129-1.414 1.29-2.495 2.681-2.494z"/>
        <path fill="#0065A5" fill-rule="nonzero" d="M105.13 139h38.618a8.266 8.266 0 0 0 7.766-5.5 8.333 8.333 0 0 0-2.515-9.21 10.727 10.727 0 0 0 2.763-7.177V85.508c0-.064-.018-.132-.024-.198a8.898 8.898 0 0 0-4.857-7.55 8.812 8.812 0 0 0-8.927.563c-2.695-4.04-8.125-5.147-12.173-2.48a8.889 8.889 0 0 0-7.439-4.26 8.537 8.537 0 0 0-3.417.721V52.906a8.915 8.915 0 0 0-4.43-7.713 8.822 8.822 0 0 0-8.862 0 8.915 8.915 0 0 0-4.43 7.713v43.808a1.895 1.895 0 0 1-1.91 1.874 1.814 1.814 0 0 1-1.335-.57.114.114 0 0 1-.04-.033s-.014-.026-.032-.037l-6.857-6.802a8.827 8.827 0 0 0-12.433.09c-3.423 3.44-3.466 9.005-.097 12.497l23.198 23.322a8.332 8.332 0 0 0 .416 8.051 8.243 8.243 0 0 0 7.023 3.894h-.006zm38.618-5.463H105.13a2.851 2.851 0 0 1-2.845-2.845 2.852 2.852 0 0 1 2.831-2.844h38.632a2.839 2.839 0 0 1 2.752 2.845c0 1.54-1.22 2.802-2.752 2.844zM78.33 99.87a3.45 3.45 0 0 1-.964-3.371 3.43 3.43 0 0 1 2.48-2.468 3.41 3.41 0 0 1 3.344 1l6.902 6.813a.11.11 0 0 0 .029.025 7.296 7.296 0 0 0 7.979 1.634 7.36 7.36 0 0 0 4.549-6.789V52.906a3.43 3.43 0 0 1 3.421-3.44 3.43 3.43 0 0 1 3.422 3.44v32.956a2.724 2.724 0 0 0 2.718 2.73c1.5 0 2.717-1.222 2.717-2.73v-5.186a3.752 3.752 0 0 1 .623-2.04 3.388 3.388 0 0 1 2.797-1.59 3.632 3.632 0 0 1 3.424 3.643v6.987a2.724 2.724 0 0 0 2.717 2.731c1.5 0 2.717-1.223 2.717-2.731v-4.38a3.43 3.43 0 0 1 3.422-3.44 3.43 3.43 0 0 1 3.422 3.44v6.997a2.724 2.724 0 0 0 2.716 2.653 2.724 2.724 0 0 0 2.716-2.653V85.71a3.43 3.43 0 0 1 3.422-3.44 3.43 3.43 0 0 1 3.422 3.44v31.403c0 2.914-2.35 5.277-5.25 5.277H105.12a8.196 8.196 0 0 0-3.569.825L78.33 99.87z"/>
        <path fill="#A2CBEB" fill-rule="nonzero" d="M143.26 127h-38.442c-1.553.008-2.81 1.345-2.818 2.999.007 1.66 1.272 3.001 2.83 3.001h38.43c1.526-.045 2.74-1.375 2.74-3s-1.214-2.955-2.74-3zM104.835 122.168h35.92c2.897 0 5.245-2.37 5.245-5.296V85.367c-.047-1.872-1.563-3.364-3.416-3.364-1.854 0-3.37 1.492-3.417 3.364v4.598c-.042 1.483-1.244 2.663-2.713 2.663s-2.67-1.18-2.712-2.663v-7.021c0-1.906-1.53-3.451-3.418-3.451-1.887 0-3.417 1.545-3.417 3.45v4.396c-.042 1.484-1.245 2.665-2.715 2.665-1.47 0-2.674-1.18-2.715-2.665v-7.01c.005-1.943-1.498-3.55-3.42-3.656a3.38 3.38 0 0 0-2.79 1.595 3.757 3.757 0 0 0-.623 2.048v5.203c-.042 1.484-1.245 2.665-2.715 2.665-1.47 0-2.674-1.181-2.715-2.665V52.451c0-1.906-1.53-3.451-3.418-3.451-1.887 0-3.417 1.545-3.417 3.451v43.957c-.008 2.99-1.801 5.68-4.541 6.814a7.26 7.26 0 0 1-7.97-1.641.109.109 0 0 1-.043-.025l-6.898-6.84a3.396 3.396 0 0 0-3.34-1.005 3.434 3.434 0 0 0-2.476 2.477 3.473 3.473 0 0 0 .963 3.382L101.27 123a8.154 8.154 0 0 1 3.564-.832z"/>
        <path fill="#0065A5" fill-rule="nonzero" d="M106.999 141.805c.026-.993-.445-1.922-1.229-2.427a2.322 2.322 0 0 0-2.54 0c-.784.505-1.255 1.434-1.229 2.427V256.35c.038 1.475 1.146 2.65 2.499 2.65 1.353 0 2.46-1.175 2.499-2.65V141.805zM143.5 139c-.663 0-1.3.287-1.768.798a2.856 2.856 0 0 0-.732 1.93v114.544c0 1.507 1.12 2.728 2.5 2.728s2.5-1.221 2.5-2.728V141.728c0-.724-.263-1.418-.732-1.93A2.397 2.397 0 0 0 143.5 139zM98.522 192.715a2.746 2.746 0 0 0-3.685 1.167l-14.183 27.3-28.952-55.725-.017-.027a2.532 2.532 0 0 0-.192-.289.96.96 0 0 0-.106-.155 1.896 1.896 0 0 0-.195-.202c-.062-.06-.12-.127-.185-.181-.066-.055-.115-.075-.17-.119-.092-.059-.183-.129-.282-.18 0 0-.017 0-.026-.017-.06-.026-.12-.05-.183-.067a2.747 2.747 0 0 0-.288-.119c-.082-.022-.17-.035-.253-.052a1.709 1.709 0 0 0-.526-.044 1.897 1.897 0 0 0-.274 0 2.394 2.394 0 0 0-.25.04c-.09.021-.181.03-.27.056-.087.027-.184.073-.274.114-.09.042-.13.044-.192.072-.01 0-.017.016-.029.018a2.203 2.203 0 0 0-.275.18c-.06.036-.12.075-.176.118-.066.054-.123.12-.185.181a2.052 2.052 0 0 0-.193.197c-.04.05-.075.102-.108.156-.069.096-.137.193-.194.293l-.016.027L.306 255.03a2.704 2.704 0 0 0-.177 2.074c.22.687.706 1.259 1.35 1.59a2.73 2.73 0 0 0 3.674-1.165L36.95 196.34h12.328c.725 0 1.42-.286 1.932-.795.513-.509.8-1.2.8-1.92a2.448 2.448 0 0 0-.024-.259 2.72 2.72 0 0 0-2.708-2.463h-9.5l9.496-18.276 10.774 20.74 17.529 33.739-14.508 27.923a2.713 2.713 0 0 0 1.173 3.666 2.742 2.742 0 0 0 3.685-1.167l31.768-61.151a2.715 2.715 0 0 0-1.173-3.663zM248.715 255.032l-46.546-89.575-.02-.027c-.053-.096-.117-.188-.178-.278-.062-.09-.075-.118-.12-.17a2.143 2.143 0 0 0-.184-.189 2.653 2.653 0 0 0-.196-.19c-.053-.046-.112-.08-.167-.119-.097-.059-.183-.129-.284-.18 0 0-.014-.014-.027-.017-.061-.028-.125-.048-.187-.072a2.807 2.807 0 0 0-.282-.114c-.088-.026-.178-.04-.266-.057a2.435 2.435 0 0 0-.253-.04 1.928 1.928 0 0 0-.276 0h-.255c-.086 0-.185.034-.273.051-.088.018-.165.03-.249.053-.084.022-.207.079-.304.12-.053.022-.112.037-.17.066l-.02.015a1.928 1.928 0 0 0-.316.208.93.93 0 0 0-.137.092c-.077.07-.15.142-.22.22a2.245 2.245 0 0 0-.156.163c-.044.055-.084.123-.132.189a2.366 2.366 0 0 0-.168.256l-.02.03-28.96 55.714-14.184-27.299a2.742 2.742 0 0 0-3.685-1.168 2.712 2.712 0 0 0-1.174 3.665l31.774 61.152a2.745 2.745 0 0 0 3.66 1.115 2.715 2.715 0 0 0 1.202-3.614l-14.517-27.924 17.533-33.74 10.789-20.74 9.492 18.277h-9.499a2.724 2.724 0 0 0-2.712 2.463 2.444 2.444 0 0 0-.027.258c.001.722.29 1.413.804 1.922.514.51 1.21.795 1.935.793h12.32l31.794 61.19c.47.9 1.403 1.465 2.422 1.469a2.742 2.742 0 0 0 2.326-1.31 2.71 2.71 0 0 0 .096-2.658h.017zM82.896 78.998h8.773a2.721 2.721 0 0 0 2.73-2.712 2.721 2.721 0 0 0-2.73-2.712H82.92c-14.105 0-25.54-11.356-25.54-25.365 0-14.01 11.435-25.366 25.54-25.366 1.288 0 2.574.097 3.847.292a39.318 39.318 0 0 0-1.838 27.936 2.732 2.732 0 0 0 3.409 1.798 2.707 2.707 0 0 0 1.81-3.385c-3.647-11.757-.632-24.554 7.89-33.482 8.521-8.928 21.226-12.601 33.24-9.611 12.016 2.99 21.475 12.18 24.752 24.043-9.534 3.904-15.77 13.12-15.806 23.362 0 .456.013.917.04 1.366a2.724 2.724 0 0 0 2.872 2.565 2.72 2.72 0 0 0 2.582-2.853c-.022-.358-.031-.72-.031-1.078-.003-8.004 4.85-15.221 12.294-18.286 7.444-3.065 16.015-1.374 21.714 4.285a19.69 19.69 0 0 1 4.322 21.565c-3.084 7.395-10.349 12.217-18.407 12.217h-9.552a2.721 2.721 0 0 0-2.73 2.711 2.721 2.721 0 0 0 2.73 2.712h9.587c9.587-.011 18.35-5.386 22.653-13.895a25.07 25.07 0 0 0-2.3-26.345c-5.714-7.646-15.277-11.443-24.723-9.815-4.184-15-16.849-26.158-32.342-28.496C113.44-1.888 98.01 5.031 89.53 18.12 77.947 15.64 65.953 19.934 58.63 29.186a30.614 30.614 0 0 0-3.534 32.437C60.257 72.217 71.05 78.96 82.898 78.998h-.002zM161.696 100.864a23.25 23.25 0 0 0-4.342-.42c-.22 0-.423 0-.638.018a2.714 2.714 0 0 0-2.452 2.889 2.718 2.718 0 0 0 2.833 2.518h.15c.571 0 1.148.035 1.718.09a29.016 29.016 0 0 0-.923 19.538 2.728 2.728 0 0 0 3.4 1.799 2.711 2.711 0 0 0 1.81-3.384 23.512 23.512 0 0 1 5.305-22.983 23.744 23.744 0 0 1 22.64-6.917c8.246 1.888 14.854 8.013 17.335 16.068-6.74 3.064-11.075 9.752-11.104 17.13 0 .343 0 .684.024 1.026a2.72 2.72 0 0 0 2.866 2.518 2.718 2.718 0 0 0 2.574-2.812 13.37 13.37 0 0 1 8.27-13.085 13.466 13.466 0 0 1 14.632 2.898 13.33 13.33 0 0 1 2.909 14.572c-2.08 4.996-6.976 8.253-12.407 8.25H157.354a17.396 17.396 0 0 1-4.948-.706 2.724 2.724 0 0 0-3.295 1.86 2.709 2.709 0 0 0 1.761 3.34 22.84 22.84 0 0 0 6.431.929h59.05c10.343-.123 18.66-8.514 18.647-18.816-.013-10.3-8.35-18.672-18.693-18.77a18.74 18.74 0 0 0-2.527.18c-3.265-10.73-12.447-18.625-23.582-20.277-11.135-1.651-22.228 3.235-28.491 12.551l-.011-.004zM20.999 157H74.57c6.479.019 12.43-3.61 15.44-9.417a17.77 17.77 0 0 0-1.118-18.21c-3.697-5.384-10.046-8.24-16.473-7.41-3.054-9.896-11.435-17.151-21.568-18.67-10.134-1.52-20.233 2.964-25.991 11.539a21.272 21.272 0 0 0-3.84-.361C9.419 114.463.008 123.975 0 135.718c-.008 11.742 9.39 21.267 20.992 21.275L21 157zm.022-37.03c.376 0 .748 0 1.12.038a27.386 27.386 0 0 0-.731 17.897c.44 1.453 1.96 2.27 3.395 1.826 1.436-.445 2.243-1.983 1.804-3.436-3.497-11.343 2.753-23.406 13.96-26.946 11.206-3.539 23.125 2.787 26.622 14.13-6.104 2.91-10.009 9.116-10.03 15.945 0 .319 0 .644.025.961.05.986.616 1.87 1.485 2.316a2.69 2.69 0 0 0 2.724-.156 2.762 2.762 0 0 0 1.218-2.47c-.01-.221-.017-.432-.017-.651.002-6.675 5.35-12.085 11.945-12.083 6.596.001 11.941 5.414 11.94 12.089 0 6.675-5.347 12.086-11.942 12.086H21.02c-8.532-.102-15.396-7.131-15.396-15.767s6.864-15.666 15.396-15.768v-.011z"/>
    </g>
</svg>
