<?xml version="1.0" encoding="UTF-8" standalone="no"?>
<svg width="32px" height="29px" viewBox="0 0 32 29" version="1.1" xmlns="http://www.w3.org/2000/svg" xmlns:xlink="http://www.w3.org/1999/xlink">
    <!-- Generator: Sketch 50 (54983) - http://www.bohemiancoding.com/sketch -->
    <title>icon_primary</title>
    <desc>Created with Sketch.</desc>
    <defs></defs>
    <g id="Page-1" stroke="none" stroke-width="1" fill="none" fill-rule="evenodd">
        <g id="icon_primary" fill="#F7630C">
            <path d="M31.766934,7.67564966 C30.8556792,3.04234841 27.597253,0.0558229066 23.3999583,0.0558229066 C21.0527869,0.0558229066 18.512319,1.03272377 16.0270787,2.87487969 C13.5142246,0.976900866 10.9737567,0 8.59897152,0 C4.40167678,0 1.11563681,3.01443696 0.231995808,7.70356112 C-1.09346569,14.653513 3.15905662,23.892204 15.612872,28.9162656 C15.7509409,28.9720885 15.8890098,29 16.0270787,29 C16.1651476,29 16.3032165,28.9720885 16.4412854,28.9162656 C28.867487,23.7805582 33.0923955,14.5697786 31.766934,7.67564966 L31.766934,7.67564966 Z M16.0270787,26.6275265 C5.09202131,22.0500481 1.30893328,14.0673725 2.44109831,8.12223292 C3.10382906,4.57747834 5.53384181,2.26082772 8.59897152,2.26082772 C10.6700051,2.26082772 12.9895627,3.26564004 15.3091204,5.19153032 C15.7233271,5.52646776 16.3032165,5.52646776 16.7174232,5.19153032 C19.0369808,3.32146295 21.3289247,2.34456208 23.3999583,2.34456208 C26.465088,2.34456208 28.867487,4.6053898 29.5578315,8.12223292 C30.6899965,14.0115496 26.9345223,21.9663138 16.0270787,26.6275265 L16.0270787,26.6275265 Z" id="heart-copy-4"></path>
        </g>
    </g>
</svg>