<?xml version="1.0" encoding="UTF-8" standalone="no"?>
<svg width="104px" height="96px" viewBox="0 0 104 96" version="1.1" xmlns="http://www.w3.org/2000/svg" xmlns:xlink="http://www.w3.org/1999/xlink">
    <!-- Generator: Sketch 49.3 (51167) - http://www.bohemiancoding.com/sketch -->
    <title>building-11</title>
    <desc>Created with Sketch.</desc>
    <defs></defs>
    <g id="Page-1" stroke="none" stroke-width="1" fill="none" fill-rule="evenodd">
        <g id="2секція-(1підїзд)-1-сторінка" transform="translate(-209.000000, -975.000000)">
            <g id="building-11" transform="translate(210.000000, 976.000000)">
                <path d="M98,84 C100,79 96,74 91,78 C93,71 86,70.92 86,70.92 L86,84 L98,84 Z" id="Shape" fill="#25BC7C" fill-rule="nonzero"></path>
                <path d="M4,84 C2,79 6,74 11,78 C9,71 16,70.92 16,70.92 L16,84 L4,84 Z" id="Shape" fill="#25BC7C" fill-rule="nonzero"></path>
                <polygon id="Shape" stroke="#141424" stroke-width="2" fill="#141424" fill-rule="nonzero" opacity="0.12" stroke-linecap="round" stroke-linejoin="round" points="16 26 16 30 34 30 34 84 38 84 38 26"></polygon>
                <rect id="Rectangle-path" stroke="#141424" stroke-width="2" fill="#141424" fill-rule="nonzero" opacity="0.12" stroke-linecap="round" stroke-linejoin="round" x="38" y="6" width="48" height="4"></rect>
                <rect id="Rectangle-path" fill="#141424" fill-rule="nonzero" opacity="0.06" x="36" y="0" width="52" height="6"></rect>
                <rect id="Rectangle-path" fill="#141424" fill-rule="nonzero" opacity="0.06" x="14" y="20" width="24" height="6"></rect>
                <rect id="Rectangle-path" fill="#FF2852" fill-rule="nonzero" x="56" y="60" width="12" height="24"></rect>
                <path d="M0,84 L102,84" id="Shape" stroke="#141424" stroke-width="2" stroke-linecap="round" stroke-linejoin="round"></path>
                <rect id="Rectangle-path" stroke="#141424" stroke-width="2" stroke-linecap="round" stroke-linejoin="round" x="56" y="60" width="12" height="24"></rect>
                <rect id="Rectangle-path" stroke="#141424" stroke-width="2" stroke-linecap="round" stroke-linejoin="round" x="38" y="6" width="48" height="78"></rect>
                <rect id="Rectangle-path" stroke="#141424" stroke-width="2" stroke-linecap="round" stroke-linejoin="round" x="16" y="26" width="22" height="58"></rect>
                <rect id="Rectangle-path" stroke="#141424" stroke-width="2" stroke-linecap="round" stroke-linejoin="round" x="48" y="38" width="10" height="10"></rect>
                <rect id="Rectangle-path" stroke="#141424" stroke-width="2" stroke-linecap="round" stroke-linejoin="round" x="22" y="56" width="10" height="14"></rect>
                <rect id="Rectangle-path" stroke="#141424" stroke-width="2" stroke-linecap="round" stroke-linejoin="round" x="22" y="34" width="10" height="14"></rect>
                <rect id="Rectangle-path" stroke="#141424" stroke-width="2" stroke-linecap="round" stroke-linejoin="round" x="66" y="38" width="10" height="10"></rect>
                <rect id="Rectangle-path" stroke="#141424" stroke-width="2" stroke-linecap="round" stroke-linejoin="round" x="48" y="18" width="10" height="10"></rect>
                <rect id="Rectangle-path" stroke="#141424" stroke-width="2" stroke-linecap="round" stroke-linejoin="round" x="66" y="18" width="10" height="10"></rect>
                <path d="M22,20 L22,16" id="Shape" stroke="#141424" stroke-width="2" stroke-linecap="round" stroke-linejoin="round"></path>
                <path d="M26,20 L26,14" id="Shape" stroke="#141424" stroke-width="2" stroke-linecap="round" stroke-linejoin="round"></path>
                <rect id="Rectangle-path" stroke="#141424" stroke-width="2" stroke-linecap="round" stroke-linejoin="round" x="36" y="0" width="52" height="6"></rect>
                <g id="Group" opacity="0.06" transform="translate(16.000000, 80.000000)" stroke="#141424" stroke-linecap="round" stroke-linejoin="round" stroke-width="2">
                    <path d="M0,0 L40,0" id="Shape"></path>
                    <path d="M52,0 L70,0" id="Shape"></path>
                </g>
                <path d="M19,90 L62,90" id="Shape" stroke="#141424" stroke-width="2" opacity="0.12" stroke-linecap="round" stroke-linejoin="round"></path>
                <polyline id="Shape" stroke="#141424" stroke-width="2" opacity="0.12" stroke-linecap="round" stroke-linejoin="round" points="68 90 68 90 83 90"></polyline>
                <path d="M39,94 L48,94" id="Shape" stroke="#141424" stroke-width="2" opacity="0.06" stroke-linecap="round" stroke-linejoin="round"></path>
                <path d="M23,94 L33,94" id="Shape" stroke="#141424" stroke-width="2" opacity="0.06" stroke-linecap="round" stroke-linejoin="round"></path>
                <path d="M54,94 L79,94" id="Shape" stroke="#141424" stroke-width="2" opacity="0.06" stroke-linecap="round" stroke-linejoin="round"></path>
                <rect id="Rectangle-path" stroke="#141424" stroke-width="2" stroke-linecap="round" stroke-linejoin="round" x="14" y="20" width="24" height="6"></rect>
            </g>
        </g>
    </g>
</svg>