<?xml version="1.0" encoding="UTF-8" standalone="no"?>
<svg width="31px" height="31px" viewBox="0 0 31 31" version="1.1" xmlns="http://www.w3.org/2000/svg" xmlns:xlink="http://www.w3.org/1999/xlink">
    <!-- Generator: Sketch 49.3 (51167) - http://www.bohemiancoding.com/sketch -->
    <title>layout</title>
    <desc>Created with Sketch.</desc>
    <defs></defs>
    <g id="Page-1" stroke="none" stroke-width="1" fill="none" fill-rule="evenodd">
        <g id="2секція-(1підїзд)-1-сторінка" transform="translate(-1032.000000, -639.000000)" fill="#F7630C">
            <path d="M1033.0938,653.006024 L1044.91222,653.006024 C1045.52582,653.006024 1046.00602,652.525818 1046.00602,651.91222 L1046.00602,640.093804 C1046.00602,639.480207 1045.52582,639 1044.91222,639 L1033.0938,639 C1032.48021,639 1032,639.480207 1032,640.093804 L1032,651.91222 C1032,652.499139 1032.50688,653.006024 1033.0938,653.006024 L1033.0938,653.006024 Z M1034.18761,641.187608 L1043.81842,641.187608 L1043.81842,650.818417 L1034.18761,650.818417 L1034.18761,641.187608 Z M1063,640.093804 L1063,651.91222 C1063,652.525818 1062.51979,653.006024 1061.9062,653.006024 L1050.08778,653.006024 C1049.47418,653.006024 1048.99398,652.525818 1048.99398,651.91222 L1048.99398,640.093804 C1048.99398,639.480207 1049.47418,639 1050.08778,639 L1061.9062,639 C1062.51979,639 1063,639.480207 1063,640.093804 Z M1060.81239,650.818417 L1060.81239,641.187608 L1051.18158,641.187608 L1051.18158,650.818417 L1060.81239,650.818417 Z M1033.0938,670 C1032.50688,670 1032,669.493115 1032,668.906196 L1032,657.08778 C1032,656.474182 1032.48021,655.993976 1033.0938,655.993976 L1044.91222,655.993976 C1045.52582,655.993976 1046.00602,656.474182 1046.00602,657.08778 L1046.00602,668.906196 C1046.00602,669.519793 1045.52582,670 1044.91222,670 L1033.0938,670 Z M1034.18761,658.181583 L1034.18761,667.812392 L1043.81842,667.812392 L1043.81842,658.181583 L1034.18761,658.181583 Z M1061.9062,655.993976 C1062.49312,655.993976 1063,656.500861 1063,657.08778 L1063,668.906196 C1063,669.519793 1062.51979,670 1061.9062,670 L1050.08778,670 C1049.47418,670 1048.99398,669.519793 1048.99398,668.906196 L1048.99398,657.08778 C1048.99398,656.474182 1049.47418,655.993976 1050.08778,655.993976 L1061.9062,655.993976 Z M1060.81239,667.812392 L1060.81239,658.181583 L1051.18158,658.181583 L1051.18158,667.812392 L1060.81239,667.812392 Z" id="layout"></path>
        </g>
    </g>
</svg>