<?xml version="1.0" encoding="UTF-8" standalone="no"?>
<svg width="32px" height="29px" viewBox="0 0 32 29" version="1.1" xmlns="http://www.w3.org/2000/svg" xmlns:xlink="http://www.w3.org/1999/xlink">
    <!-- Generator: Sketch 49.3 (51167) - http://www.bohemiancoding.com/sketch -->
    <title>heart copy 3</title>
    <desc>Created with Sketch.</desc>
    <defs></defs>
    <g id="Page-1" stroke="none" stroke-width="1" fill="none" fill-rule="evenodd">
        <g id="2секція-(1підїзд)-1-сторінка" transform="translate(-659.000000, -1215.000000)" fill="#BDBDBD">
            <path d="M690.766934,1222.67565 C689.855679,1218.04235 686.597253,1215.05582 682.399958,1215.05582 C680.052787,1215.05582 677.512319,1216.03272 675.027079,1217.87488 C672.514225,1215.9769 669.973757,1215 667.598972,1215 C663.401677,1215 660.115637,1218.01444 659.231996,1222.70356 C657.906534,1229.65351 662.159057,1238.8922 674.612872,1243.91627 C674.750941,1243.97209 674.88901,1244 675.027079,1244 C675.165148,1244 675.303216,1243.97209 675.441285,1243.91627 C687.867487,1238.78056 692.092395,1229.56978 690.766934,1222.67565 L690.766934,1222.67565 Z M675.027079,1241.62753 C664.092021,1237.05005 660.308933,1229.06737 661.441098,1223.12223 C662.103829,1219.57748 664.533842,1217.26083 667.598972,1217.26083 C669.670005,1217.26083 671.989563,1218.26564 674.30912,1220.19153 C674.723327,1220.52647 675.303216,1220.52647 675.717423,1220.19153 C678.036981,1218.32146 680.328925,1217.34456 682.399958,1217.34456 C685.465088,1217.34456 687.867487,1219.60539 688.557831,1223.12223 C689.689997,1229.01155 685.934522,1236.96631 675.027079,1241.62753 L675.027079,1241.62753 Z" id="heart-copy-3"></path>
        </g>
    </g>
</svg>