<?xml version="1.0" encoding="UTF-8" standalone="no"?>
<svg width="32px" height="29px" viewBox="0 0 32 29" version="1.1" xmlns="http://www.w3.org/2000/svg" xmlns:xlink="http://www.w3.org/1999/xlink">
    <!-- Generator: Sketch 49.3 (51167) - http://www.bohemiancoding.com/sketch -->
    <title>heart copy 3</title>
    <desc>Created with Sketch.</desc>
    <defs></defs>
    <g id="Page-1" stroke="none" stroke-width="1" fill="none" fill-rule="evenodd">
        <g id="2секція-(1підїзд)-1-сторінка" transform="translate(-965.000000, -1215.000000)" fill="#F7630C">
            <path d="M996.766934,1222.67565 C995.855679,1218.04235 992.597253,1215.05582 988.399958,1215.05582 C986.052787,1215.05582 983.512319,1216.03272 981.027079,1217.87488 C978.514225,1215.9769 975.973757,1215 973.598972,1215 C969.401677,1215 966.115637,1218.01444 965.231996,1222.70356 C963.906534,1229.65351 968.159057,1238.8922 980.612872,1243.91627 C980.750941,1243.97209 980.88901,1244 981.027079,1244 C981.165148,1244 981.303216,1243.97209 981.441285,1243.91627 C993.867487,1238.78056 998.092395,1229.56978 996.766934,1222.67565 L996.766934,1222.67565 Z M981.027079,1241.62753 C970.092021,1237.05005 966.308933,1229.06737 967.441098,1223.12223 C968.103829,1219.57748 970.533842,1217.26083 973.598972,1217.26083 C975.670005,1217.26083 977.989563,1218.26564 980.30912,1220.19153 C980.723327,1220.52647 981.303216,1220.52647 981.717423,1220.19153 C984.036981,1218.32146 986.328925,1217.34456 988.399958,1217.34456 C991.465088,1217.34456 993.867487,1219.60539 994.557831,1223.12223 C995.689997,1229.01155 991.934522,1236.96631 981.027079,1241.62753 L981.027079,1241.62753 Z" id="heart-copy-3"></path>
        </g>
    </g>
</svg>