<?xml version="1.0" encoding="UTF-8" standalone="no"?>
<svg width="59px" height="55px" viewBox="0 0 59 55" version="1.1" xmlns="http://www.w3.org/2000/svg" xmlns:xlink="http://www.w3.org/1999/xlink">
    <!-- Generator: sketchtool 50 (54983) - http://www.bohemiancoding.com/sketch -->
    <title>3D24CF5D-437C-4290-963E-8E287B85B14F</title>
    <desc>Created with sketchtool.</desc>
    <defs></defs>
    <g id="Page-1" stroke="none" stroke-width="1" fill="none" fill-rule="evenodd">
        <g id="homa-page" transform="translate(-991.000000, -3097.000000)">
            <g id="icon_house" transform="translate(988.000000, 3092.000000)">
                <rect id="Rectangle-3" x="0" y="0" width="64" height="64"></rect>
                <g id="building-10" transform="translate(4.000000, 6.000000)">
                    <path d="M5.27777778,46.9722222 L5.27777778,39.0555556" id="Shape" stroke="#141424" stroke-width="2" stroke-linecap="round" stroke-linejoin="round"></path>
                    <rect id="Rectangle-path" stroke="#141424" stroke-width="2" fill="#141424" fill-rule="nonzero" opacity="0.12" stroke-linecap="round" stroke-linejoin="round" x="11.6111111" y="9.5" width="33.7777778" height="2.11111111"></rect>
                    <rect id="Rectangle-path" fill="#141424" fill-rule="nonzero" opacity="0.06" x="9.5" y="5.27777778" width="38" height="4.22222222"></rect>
                    <path d="M35.8888889,32.1944444 C38.8037251,32.1944444 41.1666667,34.557386 41.1666667,37.4722222 L41.1666667,46.9722222 L30.6111111,46.9722222 L30.6111111,37.4722222 C30.6111111,34.557386 32.9740527,32.1944444 35.8888889,32.1944444 Z" id="Shape" fill="#3698DF" fill-rule="nonzero"></path>
                    <path d="M0,46.9722222 L57,46.9722222" id="Shape" stroke="#141424" stroke-width="2" stroke-linecap="round" stroke-linejoin="round"></path>
                    <rect id="Rectangle-path" stroke="#141424" stroke-width="2" stroke-linecap="round" stroke-linejoin="round" x="11.6111111" y="9.5" width="33.7777778" height="37.4722222"></rect>
                    <g id="Group" opacity="0.06" transform="translate(11.611111, 44.861111)" stroke="#141424" stroke-linecap="round" stroke-linejoin="round" stroke-width="2">
                        <path d="M0,0 L19,0" id="Shape"></path>
                        <path d="M29.5555556,0 L33.7777778,0" id="Shape"></path>
                    </g>
                    <path d="M35.8888889,32.1944444 C38.8037251,32.1944444 41.1666667,34.557386 41.1666667,37.4722222 L41.1666667,46.9722222 L30.6111111,46.9722222 L30.6111111,37.4722222 C30.6111111,34.557386 32.9740527,32.1944444 35.8888889,32.1944444 Z" id="Shape" stroke="#141424" stroke-width="2" stroke-linecap="round" stroke-linejoin="round"></path>
                    <path d="M43.2777778,50.1388889 L37.4722222,50.1388889" id="Shape" stroke="#141424" stroke-width="2" opacity="0.12" stroke-linecap="round" stroke-linejoin="round"></path>
                    <path d="M19.5277778,50.1388889 L13.7222222,50.1388889" id="Shape" stroke="#141424" stroke-width="2" opacity="0.12" stroke-linecap="round" stroke-linejoin="round"></path>
                    <path d="M34.3055556,50.1388889 L22.6944444,50.1388889" id="Shape" stroke="#141424" stroke-width="2" opacity="0.12" stroke-linecap="round" stroke-linejoin="round"></path>
                    <path d="M41.1666667,52.25 L27.9722222,52.25" id="Shape" stroke="#141424" stroke-width="2" opacity="0.06" stroke-linecap="round" stroke-linejoin="round"></path>
                    <path d="M24.8055556,52.25 L15.8333333,52.25" id="Shape" stroke="#141424" stroke-width="2" opacity="0.06" stroke-linecap="round" stroke-linejoin="round"></path>
                    <rect id="Rectangle-path" stroke="#141424" stroke-width="2" stroke-linecap="round" stroke-linejoin="round" x="9.5" y="5.27777778" width="38" height="4.22222222"></rect>
                    <path d="M35.8888889,32.1944444 L35.8888889,46.9722222" id="Shape" stroke="#141424" stroke-width="2" stroke-linecap="round" stroke-linejoin="round"></path>
                    <rect id="Rectangle-path" stroke="#141424" stroke-width="2" stroke-linecap="round" stroke-linejoin="round" x="16.8888889" y="36.4166667" width="4.22222222" height="5.27777778"></rect>
                    <rect id="Rectangle-path" stroke="#141424" stroke-width="2" stroke-linecap="round" stroke-linejoin="round" x="16.8888889" y="25.8611111" width="4.22222222" height="5.27777778"></rect>
                    <rect id="Rectangle-path" stroke="#141424" stroke-width="2" stroke-linecap="round" stroke-linejoin="round" x="16.8888889" y="15.3055556" width="4.22222222" height="5.27777778"></rect>
                    <rect id="Rectangle-path" stroke="#141424" stroke-width="2" stroke-linecap="round" stroke-linejoin="round" x="35.8888889" y="15.3055556" width="4.22222222" height="5.27777778"></rect>
                    <rect id="Rectangle-path" stroke="#141424" stroke-width="2" stroke-linecap="round" stroke-linejoin="round" x="35.8888889" y="2.11111111" width="7.38888889" height="3.16666667"></rect>
                    <rect id="Rectangle-path" stroke="#141424" stroke-width="2" stroke-linecap="round" stroke-linejoin="round" x="26.3888889" y="15.3055556" width="4.22222222" height="5.27777778"></rect>
                    <path d="M30.6111111,5.27777778 L30.6111111,0" id="Shape" stroke="#141424" stroke-width="2" stroke-linecap="round" stroke-linejoin="round"></path>
                    <path d="M28.5,5.27777778 L28.5,1.05555556" id="Shape" stroke="#141424" stroke-width="2" stroke-linecap="round" stroke-linejoin="round"></path>
                    <path d="M45.3888889,30.305 L45.3888889,46.9722222 L26.3888889,46.9722222 L26.3888889,30.305 C26.3971396,29.5591014 26.7984114,28.8729265 27.4444444,28.5 L35.055,24.0033333 C35.5806316,23.6921275 36.2340907,23.6921275 36.7597222,24.0033333 L44.3333333,28.5 C44.9793663,28.8729265 45.3806382,29.5591014 45.3888889,30.305 Z" id="Shape" stroke="#141424" stroke-width="2" stroke-linecap="round" stroke-linejoin="round"></path>
                    <path d="M27.4444444,28.5 C26.7951838,28.8748326 26.393414,29.5658767 26.3888889,30.3155556 L26.3888889,46.9722222 L24.2777778,46.9722222 L24.2777778,31.5452778 C24.2823029,30.7955989 24.6840726,30.1045548 25.3333333,29.7297222 L27.4444444,28.5 Z" id="Shape" stroke="#141424" stroke-width="2" fill="#141424" fill-rule="nonzero" opacity="0.12" stroke-linecap="round" stroke-linejoin="round"></path>
                    <ellipse id="Oval" fill="#25BC7C" fill-rule="nonzero" cx="5.27777778" cy="36.4166667" rx="3.69444444" ry="4.75"></ellipse>
                    <ellipse id="Oval" fill="#25BC7C" fill-rule="nonzero" cx="5.27777778" cy="30.6111111" rx="2.63888889" ry="3.16666667"></ellipse>
                    <path d="M51.7222222,46.9722222 L51.7222222,39.0555556" id="Shape" stroke="#141424" stroke-width="2" stroke-linecap="round" stroke-linejoin="round"></path>
                    <ellipse id="Oval" fill="#25BC7C" fill-rule="nonzero" cx="51.7222222" cy="36.4166667" rx="3.69444444" ry="4.75"></ellipse>
                    <ellipse id="Oval" fill="#25BC7C" fill-rule="nonzero" cx="51.7222222" cy="30.6111111" rx="2.63888889" ry="3.16666667"></ellipse>
                </g>
            </g>
        </g>
    </g>
</svg>