<?xml version="1.0" encoding="UTF-8" standalone="no"?>
<svg width="11px" height="15px" viewBox="0 0 11 15" version="1.1" xmlns="http://www.w3.org/2000/svg" xmlns:xlink="http://www.w3.org/1999/xlink">
    <!-- Generator: sketchtool 50 (54983) - http://www.bohemiancoding.com/sketch -->
    <title>61E80190-B994-4F99-8D3D-DBD8F99872C8</title>
    <desc>Created with sketchtool.</desc>
    <defs></defs>
    <g id="Page-1" stroke="none" stroke-width="1" fill="none" fill-rule="evenodd">
        <g id="homa-page" transform="translate(-653.000000, -8.000000)" fill="#F7630C">
            <path d="M658.5,15.0312487 C657.740542,15.0312487 657.125,14.4017175 657.125,13.6249989 C657.125,12.8482803 657.740542,12.2187492 658.5,12.2187492 C659.259458,12.2187492 659.875,12.8482803 659.875,13.6249989 C659.875,14.4017175 659.259458,15.0312487 658.5,15.0312487 L658.5,15.0312487 Z M658.5,11.2812494 C657.234542,11.2812494 656.208333,12.3303117 656.208333,13.6249989 C656.208333,14.9196862 657.234542,15.9687485 658.5,15.9687485 C659.765458,15.9687485 660.791667,14.9196862 660.791667,13.6249989 C660.791667,12.3303117 659.765458,11.2812494 658.5,11.2812494 L658.5,11.2812494 Z M658.5,21.5937474 C657.737792,21.5979662 653.916667,15.5848423 653.916667,13.6249989 C653.916667,11.0365619 655.968625,8.93749982 658.5,8.93749982 C661.031375,8.93749982 663.083333,11.0365619 663.083333,13.6249989 C663.083333,15.5585923 659.250292,21.5979662 658.5,21.5937474 L658.5,21.5937474 Z M658.5,8 C655.462625,8 653,10.5185933 653,13.6249989 C653,15.977186 657.585625,23.0051534 658.5,22.9999972 C659.400167,23.0051534 664,15.945311 664,13.6249989 C664,10.5185933 661.537375,8 658.5,8 L658.5,8 Z" id="Fill-162-Copy"></path>
        </g>
    </g>
</svg>