<?xml version="1.0" encoding="UTF-8" standalone="no"?>
<svg width="15px" height="15px" viewBox="0 0 15 15" version="1.1" xmlns="http://www.w3.org/2000/svg" xmlns:xlink="http://www.w3.org/1999/xlink">
    <!-- Generator: sketchtool 50 (54983) - http://www.bohemiancoding.com/sketch -->
    <title>93AB153D-703F-4AE2-9A66-19074A842C51</title>
    <desc>Created with sketchtool.</desc>
    <defs></defs>
    <g id="Page-1" stroke="none" stroke-width="1" fill="none" fill-rule="evenodd">
        <g id="homa-page" transform="translate(-851.000000, -8.000000)" fill="#F7630C">
            <path d="M864.858727,11.7566885 C864.03847,13.3186006 862.217019,15.7228812 860.692308,17.3084879 C858.934547,19.2137304 854.790805,21.8191738 854.790805,21.8191738 C854.470906,21.9874541 853.583099,22.0000267 853.338952,21.7558269 L852.455488,20.8728388 C852.273101,20.5672263 852.191076,20.2132574 852.455488,19.9898508 L854.222899,18.6648852 C854.522051,18.4622718 854.862216,18.4211689 855.106363,18.6648852 L856.195374,19.7529044 C856.451583,19.572535 860.542249,16.8858529 862.817736,13.1870711 L861.70267,12.0724559 C861.458523,11.8287396 861.500019,11.4883105 861.70267,11.1889843 L863.028108,9.42300823 C863.272255,9.09660247 863.667908,9.17880837 863.911572,9.42300823 L864.795519,10.3059963 C865.141956,10.6319185 865.041595,11.3915977 864.858727,11.7566885 L864.858727,11.7566885 Z M865.552567,9.67542869 L864.163921,8.28759974 C863.780813,7.90413342 863.158866,7.90413342 862.775276,8.28759974 L860.692308,11.0632576 C860.374338,11.5327984 860.3092,12.0676203 860.692308,12.4510866 L861.542479,13.3007087 C860.912329,14.1469459 860.155764,15.0695861 859.304145,15.9206589 C858.341067,16.8829515 857.269909,17.7577189 856.306832,18.4762952 L855.485128,17.6556869 C855.10202,17.2722206 854.566924,17.3370182 854.096483,17.6556869 L851.319192,19.7374303 C850.853576,20.0590005 850.935601,20.741793 851.319192,21.1252593 L852.707837,22.5126047 C853.475018,23.2795373 854.472353,23.0338868 855.485128,22.5126047 C855.485128,22.5126047 858.550474,20.7930507 861.174811,18.1701991 C863.6433,15.7030551 865.552567,12.4510866 865.552567,12.4510866 C865.950632,11.356781 866.319748,10.4418778 865.552567,9.67542869 L865.552567,9.67542869 Z" id="Fill-179-Copy"></path>
        </g>
    </g>
</svg>