<?xml version="1.0" encoding="UTF-8" standalone="no"?>
<svg width="15px" height="15px" viewBox="0 0 15 15" version="1.1" xmlns="http://www.w3.org/2000/svg" xmlns:xlink="http://www.w3.org/1999/xlink">
    <!-- Generator: sketchtool 50 (54983) - http://www.bohemiancoding.com/sketch -->
    <title>885B5CA6-EA4F-4BAF-A500-CB6120A6FC74</title>
    <desc>Created with sketchtool.</desc>
    <defs></defs>
    <g id="Page-1" stroke="none" stroke-width="1" fill="none" fill-rule="evenodd">
        <g id="homa-page" transform="translate(-1105.000000, -8.000000)" fill="#F7630C">
            <path d="M1117.1875,15.96875 L1118.125,15.96875 L1118.125,15.03125 L1117.1875,15.03125 L1117.1875,15.96875 Z M1112.5,22.0625 C1108.87563,22.0625 1105.9375,19.124375 1105.9375,15.5 C1105.9375,11.8760938 1108.87563,8.9375 1112.5,8.9375 C1116.12438,8.9375 1119.0625,11.8760938 1119.0625,15.5 C1119.0625,19.124375 1116.12438,22.0625 1112.5,22.0625 L1112.5,22.0625 Z M1112.5,8 C1108.35766,8 1105,11.358125 1105,15.5 C1105,19.6423437 1108.35766,23 1112.5,23 C1116.64234,23 1120,19.6423437 1120,15.5 C1120,11.358125 1116.64234,8 1112.5,8 L1112.5,8 Z M1115.34812,11.8779688 L1115.99688,12.528125 L1116.64563,11.8779688 L1115.99688,11.2282812 L1115.34812,11.8779688 L1115.34812,11.8779688 Z M1115.21078,18.6771875 L1115.87359,19.34 L1116.53641,18.6771875 L1115.87359,18.014375 L1115.21078,18.6771875 L1115.21078,18.6771875 Z M1112.5,9.875 C1112.24125,9.875 1112.03125,10.0845313 1112.03125,10.34375 L1112.03125,15.0420313 L1108.28125,15.0420313 C1108.02203,15.0420313 1107.8125,15.2525 1107.8125,15.51125 C1107.8125,15.77 1108.02203,15.9795313 1108.28125,15.9795313 L1112.5,15.9795313 C1112.75922,15.9795313 1112.96875,15.77 1112.96875,15.51125 L1112.96875,10.34375 C1112.96875,10.0845313 1112.75922,9.875 1112.5,9.875 L1112.5,9.875 Z M1109.54312,11.9014062 L1108.88031,11.2385937 L1108.2175,11.9014062 L1108.88031,12.5642187 L1109.54312,11.9014062 L1109.54312,11.9014062 Z M1108.15609,18.7025 L1108.80484,19.3526562 L1109.45359,18.7025 L1108.80484,18.0523437 L1108.15609,18.7025 L1108.15609,18.7025 Z M1112.03125,21.125 L1112.96875,21.125 L1112.96875,20.1875 L1112.03125,20.1875 L1112.03125,21.125 Z" id="Fill-166-Copy"></path>
        </g>
    </g>
</svg>